# xmcd
#
# Track frame offsets:
# 150
# 13906
# 41149
# 66947
# 92344
# 108280
# 119320
# 138481
# 171102
# 187179
# 201302
#
# Disc length: 3025 seconds
#
#
# Revision: 0
# Processed by: cddbd v1.5.2PL0 Copyright (c) Steve Scherf et al.
# Submitted via: FreeRIP 2.944 
#
DISCID=9e0bcf0b
DTITLE=Zack Reynolds - Glory Bound
DYEAR=1900
DGENRE=Blues
TTITLE0=Glory Bound
TTITLE1=Mighty Tree
TTITLE2=One Step Away
TTITLE3=Take It To Jesus
TTITLE4=Pass Me Not
TTITLE5=Cause I Have You
TTITLE6=On My Knees
TTITLE7=Sure Cure For The Blues
TTITLE8=Do With Me What You Will
TTITLE9=The Deceiver
TTITLE10=Amazing Grace
EXTD=
EXTT0=
EXTT1=
EXTT2=
EXTT3=
EXTT4=
EXTT5=
EXTT6=
EXTT7=
EXTT8=
EXTT9=
EXTT10=
PLAYORDER=
